<svg width="19" height="19" viewBox="0 0 19 19" fill="none" xmlns="http://www.w3.org/2000/svg">
<path d="M5.85417 11.5833H6.67708L6.96875 11.3021C5.94792 10.1146 5.33333 8.57292 5.33333 6.89583C5.33333 3.15625 8.36458 0.125 12.1042 0.125C15.8437 0.125 18.875 3.15625 18.875 6.89583C18.875 10.6354 15.8437 13.6667 12.1042 13.6667C10.4271 13.6667 8.88542 13.0521 7.69792 12.0313L7.41667 12.3229V13.1458L2.20833 18.3438L0.656248 16.7917L5.85417 11.5833ZM12.1042 11.5833C14.6979 11.5833 16.7917 9.48958 16.7917 6.89583C16.7917 4.30208 14.6979 2.20833 12.1042 2.20833C9.51042 2.20833 7.41667 4.30208 7.41667 6.89583C7.41667 9.48958 9.51042 11.5833 12.1042 11.5833Z" fill="black" fill-opacity="0.65"/>
</svg>
